HIERARCHY
ROOT hip
{
  OFFSET 0 0 0
  CHANNELS 6 Xposition Yposition Zposition Zrotation Yrotation Xrotation
  JOINT abdomen
  {
    OFFSET 0 20.6881 -0.73152
    CHANNELS 3 Zrotation Xrotation Yrotation
    JOINT chest
    {
      OFFSET 0 11.7043 -0.48768
      CHANNELS 3 Zrotation Xrotation Yrotation
      JOINT neck
      {
        OFFSET 0 22.1894 -2.19456
        CHANNELS 3 Zrotation Xrotation Yrotation
        JOINT head
        {
          OFFSET -0.24384 7.07133 1.2192
          CHANNELS 3 Zrotation Xrotation Yrotation
          JOINT leftEye
          {
            OFFSET 4.14528 8.04674 8.04672
            CHANNELS 3 Zrotation Xrotation Yrotation
            End Site
            {
              OFFSET 1 0 0
            }
          }
          JOINT rightEye
          {
            OFFSET -3.6576 8.04674 8.04672
            CHANNELS 3 Zrotation Xrotation Yrotation
            End Site
            {
              OFFSET 1 0 0
            }
          }
        }
      }
      JOINT rCollar
      {
        OFFSET -2.68224 19.2634 -4.8768
        CHANNELS 3 Zrotation Xrotation Yrotation
        JOINT rShldr
        {
          OFFSET -8.77824 -1.95073 1.46304
          CHANNELS 3 Zrotation Xrotation Yrotation
          JOINT rForeArm
          {
            OFFSET -28.1742 -1.7115 0.48768
            CHANNELS 3 Zrotation Xrotation Yrotation
            JOINT rHand
            {
              OFFSET -22.5879 0.773209 7.07136
              CHANNELS 3 Zrotation Xrotation Yrotation
              JOINT rThumb1
              {
                OFFSET -1.2192 -0.487915 3.41376
                CHANNELS 3 Zrotation Xrotation Yrotation
                JOINT rThumb2
                {
                  OFFSET -3.37035 -0.52449 3.41376
                  CHANNELS 3 Zrotation Xrotation Yrotation
                  End Site
                  {
                    OFFSET -1.78271 -1.18214 1.43049
                  }
                }
              }
              JOINT rIndex1
              {
                OFFSET -7.75947 0.938293 5.60832
                CHANNELS 3 Zrotation Xrotation Yrotation
                JOINT rIndex2
                {
                  OFFSET -2.54057 -0.884171 1.56538
                  CHANNELS 3 Zrotation Xrotation Yrotation
                  End Site
                  {
                    OFFSET -1.62519 -0.234802 1.16502
                  }
                }
              }
              JOINT rMid1
              {
                OFFSET -8.24714 1.18213 3.41376
                CHANNELS 3 Zrotation Xrotation Yrotation
                JOINT rMid2
                {
                  OFFSET -3.10165 -0.590103 1.0647
                  CHANNELS 3 Zrotation Xrotation Yrotation
                  End Site
                  {
                    OFFSET -2.48547 -0.328903 0.83742
                  }
                }
              }
              JOINT rRing1
              {
                OFFSET -8.82822 0.546677 1.51678
                CHANNELS 3 Zrotation Xrotation Yrotation
                JOINT rRing2
                {
                  OFFSET -2.60934 -0.819778 -0.0198488
                  CHANNELS 3 Zrotation Xrotation Yrotation
                  End Site
                  {
                    OFFSET -2.33842 -0.294052 0.168128
                  }
                }
              }
              JOINT rPinky1
              {
                OFFSET -8.27202 -0.0477905 -0.4584
                CHANNELS 3 Zrotation Xrotation Yrotation
                JOINT rPinky2
                {
                  OFFSET -1.82734 -0.647385 -0.700984
                  CHANNELS 3 Zrotation Xrotation Yrotation
                  End Site
                  {
                    OFFSET -1.69225 -0.51767 -0.607171
                  }
                }
              }
            }
          }
        }
      }
      JOINT lCollar
      {
        OFFSET 2.68224 19.2634 -4.8768
        CHANNELS 3 Zrotation Xrotation Yrotation
        JOINT lShldr
        {
          OFFSET 8.77824 -1.95073 1.46304
          CHANNELS 3 Zrotation Xrotation Yrotation
          JOINT lForeArm
          {
            OFFSET 28.1742 -1.7115 0.48768
            CHANNELS 3 Zrotation Xrotation Yrotation
            JOINT lHand
            {
              OFFSET 22.5879 0.773209 7.07136
              CHANNELS 3 Zrotation Xrotation Yrotation
              JOINT lThumb1
              {
                OFFSET 1.2192 -0.487915 3.41376
                CHANNELS 3 Zrotation Xrotation Yrotation
                JOINT lThumb2
                {
                  OFFSET 3.37035 -0.52449 3.41376
                  CHANNELS 3 Zrotation Xrotation Yrotation
                  End Site
                  {
                    OFFSET 1.78271 -1.18214 1.43049
                  }
                }
              }
              JOINT lIndex1
              {
                OFFSET 7.75947 0.938293 5.60832
                CHANNELS 3 Zrotation Xrotation Yrotation
                JOINT lIndex2
                {
                  OFFSET 2.54057 -0.884171 1.56538
                  CHANNELS 3 Zrotation Xrotation Yrotation
                  End Site
                  {
                    OFFSET 1.62519 -0.234802 1.16502
                  }
                }
              }
              JOINT lMid1
              {
                OFFSET 8.24714 1.18213 3.41376
                CHANNELS 3 Zrotation Xrotation Yrotation
                JOINT lMid2
                {
                  OFFSET 3.10165 -0.590103 1.0647
                  CHANNELS 3 Zrotation Xrotation Yrotation
                  End Site
                  {
                    OFFSET 2.48547 -0.328903 0.83742
                  }
                }
              }
              JOINT lRing1
              {
                OFFSET 8.82822 0.546677 1.51678
                CHANNELS 3 Zrotation Xrotation Yrotation
                JOINT lRing2
                {
                  OFFSET 2.60934 -0.819778 -0.0198488
                  CHANNELS 3 Zrotation Xrotation Yrotation
                  End Site
                  {
                    OFFSET 2.33842 -0.294052 0.168128
                  }
                }
              }
              JOINT lPinky1
              {
                OFFSET 8.27202 -0.0477905 -0.4584
                CHANNELS 3 Zrotation Xrotation Yrotation
                JOINT lPinky2
                {
                  OFFSET 1.82734 -0.647385 -0.700984
                  CHANNELS 3 Zrotation Xrotation Yrotation
                  End Site
                  {
                    OFFSET 1.69225 -0.51767 -0.607171
                  }
                }
              }
            }
          }
        }
      }
    }
  }
  JOINT rButtock
  {
    OFFSET -8.77824 4.35084 1.2192
    CHANNELS 3 Zrotation Xrotation Yrotation
    JOINT rThigh
    {
      OFFSET 0 -1.70687 -2.19456
      CHANNELS 3 Zrotation Xrotation Yrotation
      JOINT rShin
      {
        OFFSET 0 -36.8199 0.73152
        CHANNELS 3 Zrotation Xrotation Yrotation
        JOINT rFoot
        {
          OFFSET 0.73152 -45.1104 -5.12064
          CHANNELS 3 Zrotation Xrotation Yrotation
          End Site
          {
            OFFSET -1.1221 -3.69964 12.103
          }
        }
      }
    }
  }
  JOINT lButtock
  {
    OFFSET 8.77824 4.35084 1.2192
    CHANNELS 3 Zrotation Xrotation Yrotation
    JOINT lThigh
    {
      OFFSET 0 -1.70687 -2.19456
      CHANNELS 3 Zrotation Xrotation Yrotation
      JOINT lShin
      {
        OFFSET 0 -36.8199 0.73152
        CHANNELS 3 Zrotation Xrotation Yrotation
        JOINT lFoot
        {
          OFFSET -0.73152 -45.1104 -5.12064
          CHANNELS 3 Zrotation Xrotation Yrotation
          End Site
          {
            OFFSET 1.1221 -3.69964 12.103
          }
        }
      }
    }
  }
}
MOTION
Frames:	4
Frame Time:	0.03333
1.917801659554243 1.6304441690444946 4.169243670068681 -4.048217833042145 -35.96542686223984 14.563562124967575 11.709174066781998 4.170227497816086 9.432867765426636 3.3262955769896507 -7.295685634016991 2.1320587769150734 -2.6706044375896454 14.632417112588882 3.6255955696105957 6.21333584189415 -21.36443853378296 6.370165944099426 -0.3229146637022495 -5.037951618432999 1.83932114392519 -0.3735498245805502 1.0403987020254135 3.5272691398859024 1.6425465792417526 1.7886072769761086 -0.5527737736701965 92.09930062294006 51.47246539592743 -43.30303072929382 -25.064438581466675 -39.802570939064026 85.82578539848328 -5.675162002444267 -40.880481004714966 -9.606721177697182 -0.2288260404020548 0.6160303205251694 -1.322832629084587 1.8749832920730114 1.3087632693350315 -0.5087979510426521 0.44721074402332306 -1.7933698743581772 0.4736814647912979 10.130602866411209 5.490253195166588 -0.33477446995675564 -1.4877049997448921 -0.07092397660017014 -1.5649023279547691 3.88547345995903 0.484510213136673 -1.3964539021253586 -4.0452741086483 0.31596891582012177 -0.993223674595356 10.597996562719345 -0.9759136196225882 -1.3050244376063347 -2.334221564233303 -1.6703148186206818 -0.01799781108275056 2.1967288479208946 -2.3510296270251274 0.9102646261453629 2.417701631784439 0.3349757194519043 0.10784944519400597 -41.96157485246658 20.337931662797928 -38.480772972106934 15.929470360279083 -13.33982840180397 -33.325368762016296 6.057669818401337 31.996876001358032 -0.08451422676444054 1.8315058574080467 1.0448570363223553 2.817171737551689 -2.156844735145569 -3.176167979836464 0.34111328423023224 1.9471851736307144 -2.364337742328644 -0.2943112514913082 -6.002305671572685 2.9334810376167297 -2.0152671821415424 2.303529381752014 -1.737874299287796 2.2192107886075974 -3.894702270627022 2.295828592032194 -0.4725026339292526 -0.9300197660923004 -0.0034680962562561035 0.5479195201769471 -10.384743511676788 0.32760199159383774 1.8061911687254906 -1.6633903607726097 0.35922858864068985 -0.25464657694101334 -0.061285123229026794 -1.1917467042803764 1.9376036524772644 -2.5225139781832695 1.5253677405416965 -0.35769838839769363 -10.959679037332535 14.471979439258575 -3.504355028271675 14.648627042770386 37.978363037109375 -11.885172575712204 -9.537310302257538 -15.630393326282501 -32.54073143005371 4.424188770353794 0.35049431025981903 -2.219912689179182 84.31486487388611 -50.61273694038391 73.10225486755371 -0.7624165713787079 79.21891450881958 3.6754662171006203 1.1184751242399216 6.018673852086067 1.0789542831480503
1.9763857536017895 1.5761487483978271 4.27488864120096 -3.290197402238846 -34.42151516675949 14.825978726148605 9.76672500371933 5.586865358054638 8.169176504015923 2.5343458727002144 -7.10834875702858 1.1126114800572395 -2.5615672767162323 15.019842088222504 2.523802947252989 5.254688858985901 -20.401418209075928 4.860075227916241 -0.8092095516622066 -5.691576451063156 1.4242251589894295 -0.352631276473403 1.0581079870462418 3.812965974211693 1.7484690248966217 1.5227561071515083 -1.376243457198143 92.19156861305237 51.57083809375763 -41.94274038076401 -24.663976728916168 -40.77665001153946 84.29031729698181 -7.210614010691643 -39.624552726745605 -9.586583152413368 -0.7008941564708948 1.2430503219366074 -1.4193204045295715 2.549671344459057 1.0184107907116413 -0.5563018843531609 0.16194071620702744 -1.2556114420294762 0.19061017781496048 9.923759624361992 5.7149384915828705 -0.5338255595415831 -1.45038440823555 0.25590185075998306 -0.9315828233957291 3.911001719534397 0.6740351021289825 -2.076372765004635 -2.244817167520523 1.7117355018854141 -0.84696214646101 10.162670016288757 -1.707865409553051 -1.086769737303257 -2.925430051982403 -1.262342780828476 -0.5268658138811588 2.2909690998494625 -1.8562810868024826 0.973908081650734 2.2727161645889282 -0.21857723593711853 0.1088385097682476 -41.88296467065811 21.54895305633545 -40.50429046154022 15.048805922269821 -13.84651780128479 -33.145534694194794 7.485299706459045 31.35194420814514 -0.7307321391999722 1.7727762088179588 0.9858437441289425 2.019777651876211 -1.8335768580436707 -3.530072718858719 0.38793526589870453 2.814698740839958 -1.7604179307818413 -1.228449884802103 -5.905127227306366 2.6702889427542686 -1.764987576752901 2.331300303339958 -0.5464906990528107 2.520408108830452 -4.404512755572796 2.8332502394914627 -1.0416194424033165 0.02752751111984253 -0.4874381795525551 -1.0028633661568165 -10.282877907156944 0.6668390706181526 1.9150633737444878 -1.9401487335562706 0.17098110169172287 -0.09466622024774551 0.7467906922101974 -1.4411649852991104 1.8406759947538376 -1.6261250898241997 0.4809410311281681 -1.5749220550060272 -11.977475434541702 11.848631501197815 -4.727914407849312 12.583441436290741 39.708425402641296 -8.978076428174973 -9.23954889178276 -14.752179086208344 -31.814480423927307 4.553775675594807 0.29165133833885193 -2.073539514094591 84.11065220832825 -48.345959186553955 73.46685290336609 2.921834886074066 79.48304772377014 -0.21516110748052597 2.40808691829443 4.149414226412773 2.5741557218134403
2.0320703871548176 1.6040176153182983 4.387905894778669 4.546004980802536 -35.822537541389465 10.601791888475418 8.377583473920822 7.710746750235558 7.888181582093239 2.339763678610325 -6.455222815275192 -0.6034182384610176 -0.4240861628204584 13.526633530855179 4.103484079241753 6.014437973499298 -20.840656757354736 7.538115084171295 -0.4847792722284794 -5.860062092542648 0.25850526988506317 -0.6973098870366812 -0.14967799186706543 2.5936523638665676 0.0996159017086029 1.280992515385151 -1.166640892624855 94.87677097320557 53.07171106338501 -45.11790990829468 -24.53595757484436 -40.74946314096451 83.02099943161011 -4.845045134425163 -38.86661946773529 -8.514407649636269 -0.20994060672819614 1.4107400178909302 -1.4725401252508163 2.2161257453262806 -0.14844534918665886 -1.5765424445271492 -0.23161394521594048 -0.2378891408443451 0.03766894340515137 9.300855472683907 6.508679911494255 0.26428484357893467 -2.1357209980487823 0.7254714891314507 -0.26148654520511627 3.66476621478796 1.1186595261096954 -2.1459224447607994 -2.0091260969638824 1.0907404124736786 -0.7496060058474541 11.14439070224762 -1.3731058593839407 -0.9078670665621758 -2.8964487835764885 -1.591610424220562 -0.1056071394123137 2.134714163839817 -1.7760790139436722 1.5201064199209213 2.0640644431114197 -0.29163792729377747 -1.1264126189053059 -40.81857293844223 21.770740896463394 -43.228604793548584 12.78923124074936 -13.152807354927063 -32.13892310857773 7.923785895109177 36.59146785736084 -2.1161132119596004 1.8076744303107262 1.8160350434482098 1.8433127738535404 -0.73954738676548 -1.8973980098962784 -1.2296094372868538 4.226945489645004 -1.7883068695664406 -0.3653753735125065 -6.390588283538818 2.9761744290590286 -2.6796664483845234 1.7607294023036957 -2.1096204221248627 3.6502350121736526 -4.3957694247365 2.7020652405917645 -0.80531045794487 -1.4529023319482803 -0.6166740506887436 -2.0777673460543156 -10.341103971004486 0.436348132789135 1.37233916670084 -2.0547018572688103 -0.6792114302515984 1.2456068024039268 0.777139887213707 -0.2556396648287773 1.7499274760484695 -0.28915717732161283 0.8132130838930607 -0.378434881567955 -11.383333951234818 14.218958616256714 -4.499349966645241 13.731491267681122 37.55428433418274 -12.026388198137283 -9.792104065418243 -13.550297319889069 -32.48997062444687 4.4990116730332375 0.14401551336050034 -0.7026185654103756 84.64348912239075 -48.479028940200806 74.97879803180695 0.21176710724830627 80.04521191120148 0.6640375033020973 3.5387302190065384 4.958133772015572 2.001673076301813
2.07619147375226 1.6141482591629028 4.497088341973722 3.0693067610263824 -34.045037627220154 9.108907878398895 8.88549730181694 8.50881390273571 6.614312008023262 2.3472926393151283 -6.331267207860947 -0.9205492213368416 0.13596444390714169 12.609296590089798 5.262559130787849 5.052504613995552 -21.83574289083481 8.157472014427185 -0.6405452080070972 -4.0709904581308365 0.4821139946579933 -0.7090338226407766 -0.37202976644039154 1.4037533663213253 -0.2520746737718582 0.5228118225932121 -0.6503860652446747 94.29883003234863 53.33979249000549 -41.46604746580124 -25.040212869644165 -40.622339844703674 82.23515510559082 -3.7343450635671616 -37.11249232292175 -8.395371213555336 -0.6476798001676798 1.411956399679184 -0.6466403603553772 2.275810595601797 0.8898602239787579 -1.5093115344643593 -0.6555320508778095 0.46152301132678986 0.6059814244508743 9.125576466321945 6.403736472129822 0.22471890784800053 -2.0540842786431313 1.0125456377863884 0.44055014848709106 3.69976032525301 0.7504981756210327 -2.401798814535141 -2.132323980331421 1.580331064760685 -0.6187832728028297 11.540704518556595 -1.7069387063384056 -0.9449278190732002 -2.209492139518261 -1.732277199625969 1.565393339842558 1.7889821156859398 -3.0125780403614044 2.0943740755319595 1.5123729407787323 -0.3074193745851517 -0.8815235830843449 -45.5090993642807 22.509060502052307 -41.53928518295288 13.495777398347855 -13.998664766550064 -33.40815246105194 9.094769954681396 35.7413524389267 -3.0374548584222794 2.0248790457844734 2.088665831834078 1.6542921401560307 -1.4761198684573174 -1.3008281216025352 -1.57566636800766 4.496014639735222 -2.4051177129149437 -0.3136293590068817 -7.117331475019455 3.5326895490288734 -3.135712221264839 2.7821407467126846 -1.9968147575855255 4.153481796383858 -4.150940403342247 2.239223923534155 -0.05897238850593567 -0.6977545469999313 0.12539997696876526 -2.126967776566744 -10.958641692996025 0.9955400973558426 0.6674730777740479 -2.0625952631235123 -1.050293706357479 0.537043958902359 0.16999505460262299 -0.7431448996067047 1.594998724758625 -0.6362732453271747 1.746481005102396 0.5998267605900764 -11.647310256958008 12.37611472606659 -6.97154201567173 13.430252373218536 37.37114042043686 -13.25280413031578 -10.18963024020195 -12.12865948677063 -33.05655777454376 3.9693518355488777 0.12849725782871246 0.026030000299215317 84.05738353729248 -50.448113679885864 74.07649755477905 -0.05482301115989685 81.12124443054199 0.6891235336661339 3.245803825557232 4.42308135330677 1.8914544023573399
